<svg xmlns="http://www.w3.org/2000/svg" viewBox="0 0 500 500"><defs><style>.cls-1{fill:#7f7f7f;opacity:0.2;}.cls-2{fill:#ec1e31;}</style></defs><title>red-fuel50_bold</title><g id="CANVAS"><path class="cls-1" d="M5905,304.53c-3074.12,0-5566.19,2492.07-5566.19,5566.19S2830.88,11436.91,5905,11436.91s5566.18-2492.07,5566.18-5566.19S8979.12,304.53,5905,304.53ZM4052.5,10390.35c178,16.83,426.17-2.49,437.35-3.38,862.94-94,1399-668.62,1399-1499.65,0-719.65-520.06-1203.17-1294.1-1203.17-34,0-75.64,1.45-117.74,4l181-993.24H6192.51l35-196.56,4.71-27.74h-.85l46.92-318.77H4186.93L3790.22,8357.34l289-69.51c137.31-32.54,290.22-62.65,477.81-62.65,351.56,0,762.08,176.79,762.08,675,0,582.18-381,940.88-1018.36,959.53C2845.43,9847.58,1447.54,8593,1049.22,6941.88l-20.62-93.24a4971.38,4971.38,0,0,1-96.95-977.59c0-2742.3,2231-4973.32,4973.29-4973.32,1060.35,0,2072.09,330.61,2926.79,956.23-157.78,979.77-373.2,2324.53-466.46,2923.69-178,156.36-536.85,411.22-815.82,488.11-46.71,11.42-96.84,19.77-140.49,23.47l-18.78,1.06c-14.13.83-30.14,1.77-45.11,1.77-279.88,0-420.32-150.12-440.58-471.93,1075.95-98,1460-607.85,1460-1054.69,0-434.83-292.09-727-726.82-727-712.89,0-1292.87,760.68-1292.87,1695.68,0,131.09,14,254.12,41.51,365.94-96.68,67-236.9,148-379.54,174.12l-14.85,3.18-11.25,1.8c-7.51,1.22-15.14,2.45-22.68,3.49,1.75-38,8.21-80.75,14.48-122.31l325.34-2054.52H5735.36L5432.12,4998.68c-54.7,48.38-343.85,291.83-623.31,291.83h-3.13c-34.52-.23-70.11.05-96.93-24.59-33.46-30.74-50.42-97.63-50.42-198.82,0-43.74,6.69-127.56,25.54-232.16l276.26-1729.1H3862.94l11.56-81c51.3-322,167.4-383,363.67-383,34.89,0,159.37,20.84,188.87,33.19l226.61,95,89.79-538.92L4600,2174.16c-98.18-40.38-233.62-63.54-371.58-63.54-254.68,0-461.09,72.3-613.51,214.89-151.07,141.34-249.76,352.65-293.39,628.33l-22.08,152h-373l-87.15,507.66H3214.8L2866.24,5863c-40,245.37-119.93,291.88-253.51,291.88-32.59,0-61.42-5-85.73-14.76l-225.88-90.63-87.66,542.83,145.35,58.35c69.21,27,156,41.88,244.36,41.88,461.29,0,735.73-255.43,815.71-759.3L3777,3613.5h535L4127.19,4768.82c-15.26,91.67-26.32,224.16-26.32,315,0,474.37,250.92,746.44,688.44,746.44,226,0,456.18-75.59,684.46-224.72a435.22,435.22,0,0,0,48,64c60.21,66.57,170.05,145.9,351.4,145.9a820.42,820.42,0,0,0,96.25-6.19c272.29-24.38,508.24-146.44,663.11-249.13,173.51,179.29,409.86,270.16,702.87,270.16,22.8,0,207.86-17.17,271.95-31.19,99.6-20.62,194.31-50.66,265.53-84.07,142.86-58,290.58-138.35,439.56-239.07,20.54,74.41,56.09,140.79,103.83,193.49,59.92,66.61,169.51,146,351.34,146,68.79,0,157-12.74,205-24.72l123.3-30.71,93.89-544.27-278.15,55.88c-24,4.66-43,7.61-59.58,9.15.77-17.45,2.73-36.69,4.33-52.52l472.1-2961.32c985.17,936.17,1549.33,2247.19,1549.33,3604.21,0,2742.18-2230.83,4973.11-4972.91,4973.11-751.43,0-1498.08-172-2171-498.86A3202.49,3202.49,0,0,0,4052.5,10390.35ZM6959.36,4277.76c121.79-460.47,423.07-701.12,663.64-701.12,123.88,0,184.1,63.32,184.1,193.59C7807.1,4012.87,7475.61,4210.44,6959.36,4277.76Z"/></g><g id="BRAND"><path class="cls-2" d="M298.23,185.6c-6.76,0-15.21,6.76-18.63,19.68,14.49-1.89,23.79-7.43,23.79-14.24C303.39,187.38,301.7,185.6,298.23,185.6Z"/><path class="cls-2" d="M346.1,148.84,332.85,232c0,.45-.1,1-.12,1.48a16.66,16.66,0,0,0,1.67-.26l7.81-1.57-2.64,15.28-3.46.86a27.38,27.38,0,0,1-5.75.7,12.72,12.72,0,0,1-9.86-4.1,13.4,13.4,0,0,1-2.92-5.43,67.67,67.67,0,0,1-12.34,6.71,35,35,0,0,1-7.45,2.36,75.91,75.91,0,0,1-7.64.87c-8.22,0-14.86-2.55-19.73-7.58-4.34,2.88-11,6.31-18.61,7a21.71,21.71,0,0,1-2.7.18,12.8,12.8,0,0,1-9.87-4.1,11.76,11.76,0,0,1-1.34-1.79c-6.41,4.18-12.87,6.3-19.22,6.3-12.28,0-19.32-7.63-19.32-21a63,63,0,0,1,.73-8.84l5.19-32.43h-15l-10.06,65.11c-2.24,14.15-10,21.32-22.9,21.32a19.38,19.38,0,0,1-6.86-1.18l-4.08-1.63L148.83,255l6.35,2.54a6.31,6.31,0,0,0,2.4.42c3.75,0,6-1.31,7.12-8.2l9.78-63.14H163.94l2.45-14.25h10.47l.62-4.27c1.22-7.74,4-13.67,8.24-17.64s10.07-6,17.22-6a28.82,28.82,0,0,1,10.43,1.78l4,1.6L214.87,163l-6.36-2.67a26.81,26.81,0,0,0-5.3-.93c-5.51,0-8.77,1.71-10.21,10.75l-.32,2.28h30.8l-7.76,48.53a40.66,40.66,0,0,0-.72,6.52c0,2.84.48,4.72,1.42,5.58a3.77,3.77,0,0,0,2.72.69h.09c7.84,0,16-6.83,17.5-8.19l8.51-53.13H261l-9.14,57.67c-.17,1.17-.35,2.37-.4,3.43l.63-.1.32,0,.42-.08a29.32,29.32,0,0,0,10.65-4.89,43.31,43.31,0,0,1-1.16-10.28c0-26.24,16.28-47.6,36.29-47.6,12.2,0,20.4,8.21,20.4,20.41,0,12.55-10.78,26.86-41,29.61.57,9,4.51,13.25,12.36,13.25.42,0,.87,0,1.27,0l.53,0a27.69,27.69,0,0,0,3.94-.66c7.83-2.16,17.91-9.31,22.9-13.7,2.62-16.82,8.67-54.57,13.1-82.08A138.21,138.21,0,0,0,250,110.4C173,110.4,110.39,173,110.39,250a139.91,139.91,0,0,0,2.72,27.44l.58,2.62C124.87,326.42,164.11,361.64,205,362c17.89-.53,28.58-10.6,28.58-26.94,0-14-11.52-19-21.39-19a56.08,56.08,0,0,0-13.41,1.76l-8.11,1.95,11.13-61.91h58.71l-1.32,8.95h0l-.14.78-1,5.52H215L209.91,301c1.19-.07,2.36-.11,3.31-.11,21.73,0,36.33,13.57,36.33,33.77,0,23.33-15.05,39.46-39.28,42.1a88,88,0,0,1-12.27.09,87.73,87.73,0,0,1-8.94-1.26,139.94,139.94,0,0,0,60.94,14c77,0,139.59-62.62,139.59-139.6A140,140,0,0,0,346.1,148.84ZM288,354.11c-20.71,0-36.93-17.37-36.93-39.55,0-28.76,14.56-57.79,47.09-57.79,21.3,0,36.76,16.86,36.76,40.09C334.91,325.36,320.4,354.11,288,354.11Z"/><path class="cls-2" d="M0,0V500H500V0ZM250,406.25A156.25,156.25,0,1,1,406.25,250,156.26,156.26,0,0,1,250,406.25Z"/><path class="cls-2" d="M297.44,272.13c-20.83,0-30.32,21.45-30.32,41.37,0,14.74,9,25.43,21.39,25.43,21,0,30.34-20.86,30.34-41.54C318.85,282.05,310.45,272.13,297.44,272.13Z"/></g></svg>