<?xml version="1.0" standalone="no"?>
<!DOCTYPE svg PUBLIC "-//W3C//DTD SVG 20010904//EN"
 "http://www.w3.org/TR/2001/REC-SVG-20010904/DTD/svg10.dtd">
<svg version="1.0" xmlns="http://www.w3.org/2000/svg"
 width="160.000000pt" height="160.000000pt" viewBox="0 0 160.000000 160.000000"
 preserveAspectRatio="xMidYMid meet">

<g transform="translate(0.000000,160.000000) scale(0.100000,-0.100000)"
fill="#000000" stroke="none">
<path d="M678 1590 c-170 -27 -313 -102 -443 -234 -72 -72 -100 -110 -137
-182 -47 -89 -80 -194 -93 -286 l-6 -48 345 0 345 0 20 26 c20 25 21 39 21
251 0 247 4 270 59 316 66 55 174 27 211 -56 18 -40 20 -71 20 -554 l0 -512
22 -15 c34 -24 73 -20 97 10 20 26 21 38 21 323 0 396 -8 384 245 395 82 4
152 9 154 11 9 10 -45 131 -90 198 -103 157 -278 286 -459 337 -86 24 -246 34
-332 20z"/>
<path d="M824 1369 c-17 -19 -19 -43 -24 -264 -5 -267 -6 -269 -74 -319 -26
-20 -42 -21 -376 -24 l-349 -3 5 -47 c24 -196 107 -357 254 -495 255 -240 641
-283 945 -105 42 25 106 77 160 132 72 72 100 110 137 182 77 148 106 287 93
439 l-7 85 -159 0 c-146 0 -161 -2 -179 -20 -19 -19 -20 -33 -20 -310 0 -313
-3 -332 -54 -379 -19 -18 -40 -25 -78 -28 -67 -5 -111 20 -138 80 -18 40 -20
71 -20 554 l0 512 -22 15 c-31 22 -71 20 -94 -5z m-454 -714 c43 -39 12 -82
-36 -50 -27 18 -75 17 -81 -2 -3 -6 19 -18 52 -28 97 -28 122 -80 66 -136 -25
-25 -37 -29 -83 -29 -88 0 -147 51 -96 83 12 8 25 6 50 -7 36 -19 79 -19 86 1
4 13 -23 27 -71 38 -36 7 -77 48 -77 75 0 12 14 35 30 52 28 28 35 30 85 26
34 -3 62 -12 75 -23z m240 13 c14 -9 25 -9 45 0 32 15 80 15 107 1 31 -17 48
-71 48 -157 0 -84 -11 -107 -47 -100 -15 3 -19 17 -23 96 -4 67 -9 95 -20 102
-43 27 -60 1 -60 -90 0 -83 -13 -115 -46 -108 -17 3 -20 14 -24 96 -4 67 -9
95 -20 102 -43 27 -60 1 -60 -90 0 -83 -13 -115 -46 -108 -17 3 -19 14 -22
123 -1 65 -1 124 2 130 5 15 143 17 166 3z"/>
</g>
</svg>
